<svg xmlns="http://www.w3.org/2000/svg" xmlns:xlink="http://www.w3.org/1999/xlink" id="Layer_1" width="245.555" height="248.768" version="1.1" viewBox="0 0 245.555 248.768" style="overflow:visible;enable-background:new 0 0 245.555 248.768" xml:space="preserve"><g><path style="fill:#81c5e8;stroke:#81c5e8;stroke-width:25;stroke-linecap:round;stroke-linejoin:round" d="M75.957,144.232h76.309 c11.045,0,20.082-9.036,20.082-20.081V32.581c0-11.045-9.037-20.081-20.082-20.081H32.581C21.537,12.5,12.5,21.536,12.5,32.581 v91.569v62.653L75.957,144.232z"/></g><g><path style="fill:#ff78c9;stroke:#ff78c9;stroke-width:25;stroke-linecap:round;stroke-linejoin:round" d="M104.174,168.435 h76.309c11.045,0,20.081-9.037,20.081-20.082V56.783c0-11.044-9.036-20.081-20.081-20.081H60.798 c-11.044,0-20.082,9.036-20.082,20.081v91.569v62.653L104.174,168.435z"/></g><g><path style="fill:#fc6;stroke:#fc6;stroke-width:25;stroke-linecap:round;stroke-linejoin:round" d="M136.665,193.695h76.31 c11.045,0,20.081-9.035,20.081-20.08v-91.57c0-11.044-9.036-20.081-20.081-20.081H93.289c-11.044,0-20.081,9.037-20.081,20.081 v91.57v62.652L136.665,193.695z"/></g></svg>